PathFileType	4	(X/Y/Z)	C:\Users\Basilio\Documents\Thesis Gigler\squatting_fais\c3dfiles\054\SLS_back_pre3\markers_experimental.trc
DataRate	CameraRate	NumFrames	NumMarkers	Units	OrigDataRate	OrigDataStartFrame	OrigNumFrames
200.000000	200.000000	4	61	mm	200.000000	1288	1472
Frame#	Time	FHD			LBHD			RBHD			C7			T10			CLAV			LSHO			LUUPA			LMUPA			LDUPA			LLEP			LMEP			LRAD			LUL			LRFIN			RSHO			RUPA1			RMUPA			RDUPA			RLEP			RMEP			RRAD			RUL			RUFIN			LASI			RASI			USACR			LSACR			RSACR			LTHI1			LTHI2			LTHI3			LTHI4			LLFC			LMFC			LTIB1			LTIB2			LTIB3			LTIB4			LLMAL			LMMAL			LHEE			LMT1			LMT2			LMT5			RTHI			RTHI2			RTHI3			RTHI4			RLFC			RMFC			RTIB1			RTIB2			RTIB3			RTIB4			RLMAL			RMMAL			RHEE			RMT1			RMT2			RMT5			
		X1	Y1	Z1	X2	Y2	Z2	X3	Y3	Z3	X4	Y4	Z4	X5	Y5	Z5	X6	Y6	Z6	X7	Y7	Z7	X8	Y8	Z8	X9	Y9	Z9	X10	Y10	Z10	X11	Y11	Z11	X12	Y12	Z12	X13	Y13	Z13	X14	Y14	Z14	X15	Y15	Z15	X16	Y16	Z16	X17	Y17	Z17	X18	Y18	Z18	X19	Y19	Z19	X20	Y20	Z20	X21	Y21	Z21	X22	Y22	Z22	X23	Y23	Z23	X24	Y24	Z24	X25	Y25	Z25	X26	Y26	Z26	X27	Y27	Z27	X28	Y28	Z28	X29	Y29	Z29	X30	Y30	Z30	X31	Y31	Z31	X32	Y32	Z32	X33	Y33	Z33	X34	Y34	Z34	X35	Y35	Z35	X36	Y36	Z36	X37	Y37	Z37	X38	Y38	Z38	X39	Y39	Z39	X40	Y40	Z40	X41	Y41	Z41	X42	Y42	Z42	X43	Y43	Z43	X44	Y44	Z44	X45	Y45	Z45	X46	Y46	Z46	X47	Y47	Z47	X48	Y48	Z48	X49	Y49	Z49	X50	Y50	Z50	X51	Y51	Z51	X52	Y52	Z52	X53	Y53	Z53	X54	Y54	Z54	X55	Y55	Z55	X56	Y56	Z56	X57	Y57	Z57	X58	Y58	Z58	X59	Y59	Z59	X60	Y60	Z60	X61	Y61	Z61	

1289	6.44	-186.2198333740235	1790.823364257813	-946.1141357421877	-351.4392395019532	1736.5224609375	-1012.313842773438	-363.9092712402344	1740.329467773438	-872.5561523437502	-396.7664489746095	1562.931640625	-924.9309692382815	-410.0311584472657	1233.242309570313	-919.9009399414065	-249.2555389404297	1514.794921875	-935.4361572265627	-332.0590209960938	1561.241821289063	-1082.486083984375	-178.6133117675782	1446.697387695313	-1205.789306640625	-146.496322631836	1481.903686523438	-1191.731323242188	-109.0696792602539	1440.600708007813	-1215.3095703125	-50.27113723754884	1446.012573242188	-1211.575073242188	-48.37522888183595	1380.414794921875	-1166.319946289063	193.1083374023438	1488.154296875	-1102.59033203125	220.4155731201172	1457.557250976563	-1169.053100585938	285.5243835449219	1516.411499023438	-1110.345581054688	-318.3374023437501	1567.98486328125	-787.1323852539065	-155.6402435302735	1459.74267578125	-664.5744628906251	-122.0240631103516	1491.431396484375	-678.6365356445314	-86.87584686279298	1445.455688476563	-657.1814575195314	-41.52868652343751	1441.76171875	-661.6951293945314	-45.62496566772462	1384.468139648438	-712.4013671875001	201.5887145996094	1512.794311523438	-797.8469238281252	217.834457397461	1482.6533203125	-726.4465332031251	275.7756958007813	1550.921875	-794.7014160156252	-224.7532501220704	1062.794799804688	-1044.880737304688	-221.4348602294922	1067.627807617188	-790.510192871094	-410.7723693847657	1148.182495117188	-916.9606933593752	-417.1570129394532	1116.167358398438	-944.6052856445315	-414.7120056152345	1115.590576171875	-887.6862792968752	-317.8066101074219	824.9707641601565	-1129.28564453125	-287.1598815917969	744.7276611328126	-1128.767700195313	-239.7455139160157	747.3142700195314	-1121.9345703125	-316.6719665527344	692.7869262695314	-1112.862915039063	-319.3159484863282	539.0752563476564	-1096.577880859375	-291.6921386718751	529.2564086914064	-959.4416503906252	-279.4360046386719	372.5602111816407	-1049.004028320313	-327.3907165527344	328.9769592285157	-1109.587524414063	-290.3369445800782	325.3640747070313	-1083.469604492188	-298.1919555664063	247.1222839355469	-1052.473999023438	-358.6991271972657	111.6454696655274	-1097.992919921875	-330.2600402832032	129.7808837890625	-1005.655822753906	-428.2785034179689	100.9693984985352	-1042.073852539063	-216.1469726562501	56.02905273437501	-1019.649108886719	-209.1216278076172	55.27258300781251	-1069.1572265625	-260.7378234863282	39.47491073608399	-1120.938354492188	-322.1930236816407	766.5983886718751	-704.9851684570314	-287.8804016113282	710.8162231445314	-702.2171020507814	-254.5539703369141	709.9894409179689	-704.7796020507814	-317.5523986816407	634.1408691406251	-718.9444580078126	-330.6924438476563	543.4874877929689	-717.2671508789064	-271.2745971679688	538.1692504882814	-844.375427246094	-278.9042968750001	432.7823181152345	-715.2801513671876	-354.3039245605469	364.6185302734376	-682.0499267578126	-309.0645446777344	355.2816772460938	-688.5268554687501	-295.0455322265626	303.0527038574219	-709.0315551757814	-360.2276916503907	127.7355270385742	-681.2058715820314	-317.8960266113282	138.7571716308594	-766.7546997070314	-421.965057373047	103.0709228515625	-740.7450561523439	-203.1730194091797	53.01813125610353	-746.5482788085939	-203.0122528076172	52.7152557373047	-698.8298950195314	-254.7427825927735	39.51974105834962	-652.1188964843751	
1290	6.445	-186.4316558837891	1790.846923828125	-944.4705810546877	-351.9213562011719	1736.486206054688	-1010.330810546875	-364.1565246582032	1740.315551757813	-870.5709228515627	-396.8463745117189	1562.7724609375	-922.776550292969	-409.8236083984376	1233.082153320313	-917.9067382812502	-249.2625274658204	1514.853881835938	-933.504333496094	-332.5508117675782	1561.149658203125	-1080.502685546875	-179.1401672363282	1446.33984375	-1203.847534179688	-146.9963531494141	1481.599975585938	-1189.94873046875	-109.4341506958008	1440.058227539063	-1213.5615234375	-50.91727828979494	1445.59619140625	-1209.778076171875	-48.74732208251955	1380.1962890625	-1164.700561523438	193.1623687744141	1487.870239257813	-1101.122314453125	219.853500366211	1457.167602539063	-1167.814453125	285.2712707519532	1515.957763671875	-1109.105346679688	-317.9954528808594	1567.97021484375	-785.0767822265627	-155.2276611328125	1459.617919921875	-662.7971191406251	-121.5928497314453	1491.297729492188	-676.9644775390626	-86.2605667114258	1445.4267578125	-655.6760864257814	-41.16626739501954	1441.688110351563	-660.1028442382814	-45.50807189941407	1384.328247070313	-710.8552246093751	201.5610504150391	1512.750244140625	-796.619567871094	217.9487457275391	1482.562377929688	-725.3150024414064	275.9072875976563	1550.843627929688	-793.5770263671877	-224.588363647461	1062.99560546875	-1043.185424804688	-220.992660522461	1067.5654296875	-788.824401855469	-410.5060424804689	1147.980346679688	-915.353454589844	-416.7624511718751	1116.048217773438	-942.947937011719	-414.3323059082032	1115.482543945313	-886.1567382812502	-317.4079284667969	825.025085449219	-1127.921752929688	-287.0539550781251	745.0007934570314	-1127.466186523438	-239.6706085205079	747.4864501953126	-1120.893798828125	-316.4697875976563	692.9324951171876	-1111.55859375	-319.2580566406251	539.2807617187501	-1095.465576171875	-291.4243469238282	529.3161621093751	-958.511657714844	-279.3769226074219	372.7313537597657	-1048.471923828125	-327.3840026855469	329.2968444824219	-1109.289428710938	-290.4121093750001	325.6331176757813	-1082.955078125	-298.1706237792969	247.2459564208985	-1052.218017578125	-358.6745910644532	111.7765121459961	-1097.896484375	-329.0486145019532	129.8511047363282	-1005.559936523438	-428.2966308593751	101.0805587768555	-1042.022216796875	-216.1493072509766	56.059383392334	-1019.648864746094	-208.5461730957032	55.41357040405275	-1068.919189453125	-260.7566528320313	39.52052688598634	-1120.91748046875	-322.8030700683594	766.5421142578126	-704.0708007812501	-288.5436706542969	710.6088867187501	-701.3504638671876	-255.1176757812501	709.8239135742189	-703.9492797851564	-318.4953308105469	634.0985107421876	-718.3795166015626	-331.8937988281251	543.4774169921876	-716.6511840820314	-272.4585571289063	538.2489624023439	-844.0057373046877	-279.9096984863282	432.8521423339845	-714.9215698242189	-355.1320190429688	364.4864196777344	-681.6160278320314	-309.5591125488282	355.1448974609376	-688.1837158203126	-295.6911926269532	302.9731445312501	-708.7330322265626	-360.4244995117188	127.5678329467774	-681.0739746093751	-317.9509277343751	138.7197418212891	-766.6246948242189	-422.171356201172	103.0050048828125	-740.6783447265626	-203.1040039062501	52.99382400512697	-746.3973999023439	-203.0000610351563	52.61950683593751	-698.7407836914064	-254.7402038574219	39.34290313720704	-652.0342407226564	
1291	6.45	-186.7238464355469	1790.827880859375	-942.7430419921877	-352.0503234863282	1736.41748046875	-1008.308776855469	-364.4319152832032	1740.396240234375	-868.4336547851565	-397.0275268554689	1562.662231445313	-920.709411621094	-409.7388916015626	1232.923217773438	-915.9490356445315	-249.5492401123047	1514.838745117188	-931.5270996093752	-332.9770812988282	1560.988525390625	-1078.490844726563	-179.1243133544922	1445.897216796875	-1202.03662109375	-147.5535888671875	1481.226440429688	-1188.217651367188	-110.1500930786133	1439.875732421875	-1211.694458007813	-51.52487182617189	1445.200805664063	-1208.027709960938	-49.48867416381837	1379.857666015625	-1162.592651367188	192.7359466552735	1487.80712890625	-1099.927612304688	219.1500091552735	1456.81201171875	-1166.31884765625	284.6885070800782	1515.899169921875	-1107.982177734375	-317.7337951660157	1568.072387695313	-783.0413818359377	-154.7006530761719	1459.499633789063	-661.0322265625001	-121.1874542236328	1491.23486328125	-675.3129882812501	-85.83826446533205	1445.258056640625	-654.2401733398439	-40.90008926391602	1441.713989257813	-658.9949340820314	-45.25937652587891	1384.19677734375	-709.2650756835939	201.3960418701172	1512.7705078125	-795.3641357421877	218.1181640625001	1482.508056640625	-724.3653564453126	275.9062805175782	1550.904418945313	-792.546325683594	-224.3655090332032	1063.224975585938	-1041.624145507813	-220.5213928222657	1067.521728515625	-787.3204345703127	-410.249969482422	1147.955078125	-913.7139282226565	-416.6641540527345	1116.00390625	-941.3142089843752	-413.8885803222657	1115.328735351563	-884.436950683594	-317.3585815429688	825.2903442382815	-1126.741088867188	-287.0533447265626	745.1645507812501	-1126.375122070313	-239.5682983398438	747.7486572265626	-1119.656860351563	-316.4425354003907	693.1996459960939	-1110.575561523438	-319.9257507324219	539.7019042968751	-1094.800659179688	-291.1920166015626	529.3305053710939	-957.7723388671877	-279.2738952636719	372.9543457031251	-1048.027099609375	-327.3660888671876	329.3538513183594	-1108.892211914063	-290.7184143066407	325.8895263671876	-1082.405639648438	-298.0920410156251	247.392318725586	-1051.945068359375	-359.0487670898438	112.0836639404297	-1097.741821289063	-328.9314880371094	129.9858703613282	-1005.499755859375	-428.2634887695314	101.1731109619141	-1041.947631835938	-216.3453826904297	56.07824325561525	-1019.681030273438	-208.9644317626954	55.3731155395508	-1069.141357421875	-260.7276916503907	39.56147766113282	-1120.878784179688	-323.5160522460938	766.7260742187501	-702.9296264648439	-289.1983642578126	710.5167236328126	-700.4313354492189	-255.8562164306641	709.6302490234376	-703.0210571289064	-319.6101074218751	634.2178344726564	-717.6282958984376	-332.8945007324219	543.4639892578126	-716.0800170898439	-274.4741516113282	538.1903076171876	-843.4130859375002	-280.6138305664063	432.8065185546876	-714.4205322265626	-355.8179626464844	364.4085083007813	-681.1589965820314	-310.0547180175782	355.0867004394532	-687.9317626953126	-296.0083923339844	303.0317077636719	-708.4678344726564	-360.6134338378907	127.3418197631836	-680.8098754882814	-318.0950012207032	138.6964721679688	-766.4346313476564	-422.0628051757814	102.8432769775391	-740.5378417968751	-203.3313140869141	53.20759201049806	-746.2916870117189	-203.0513916015626	52.58862686157228	-698.5306396484376	-254.8607788085938	39.10433578491212	-651.9094238281251	
1292	6.455	-186.8868103027344	1790.819702148438	-941.1382446289065	-352.5686950683594	1736.444580078125	-1006.3134765625	-364.5287475585938	1740.33984375	-866.3992919921877	-397.1532287597657	1562.588500976563	-918.5596923828127	-409.628875732422	1232.896240234375	-914.1424560546877	-249.7228546142579	1514.832275390625	-929.6526489257815	-333.4363403320313	1560.888916015625	-1076.561279296875	-180.0918121337891	1445.490112304688	-1200.10986328125	-148.1871490478516	1480.908813476563	-1186.440673828125	-110.9656982421875	1439.462280273438	-1209.8544921875	-52.05736541748048	1444.760620117188	-1206.480834960938	-49.9009132385254	1379.633178710938	-1161.043701171875	192.0399322509766	1487.210205078125	-1098.833129882813	218.7607574462891	1456.368774414063	-1165.047973632813	284.5483703613282	1515.58154296875	-1106.59130859375	-317.7651062011719	1568.06494140625	-780.9663696289065	-154.375961303711	1459.424072265625	-659.4917602539064	-120.8930053710938	1491.1572265625	-673.5963134765626	-85.6300735473633	1445.216186523438	-652.6141967773439	-40.47043609619141	1441.31982421875	-657.1688232421876	-44.9180030822754	1384.097290039063	-707.9812011718751	201.2525939941407	1512.713989257813	-794.0322875976565	218.3528137207032	1482.447021484375	-723.3884887695314	275.8995971679688	1550.780639648438	-791.4661254882815	-224.1800231933594	1063.432006835938	-1040.00634765625	-220.0850067138672	1067.541137695313	-785.5938110351565	-410.0313720703126	1147.8994140625	-911.9160766601565	-416.275360107422	1116.0673828125	-939.7102661132815	-413.7561950683595	1115.291137695313	-882.6543579101565	-317.2607727050782	825.5347900390627	-1125.239135742188	-286.8253479003907	745.7714843750001	-1125.2021484375	-239.5577697753907	748.0517578125001	-1118.510131835938	-316.5078125000001	693.3624877929689	-1109.326782226563	-319.6583862304688	540.2106323242189	-1093.8349609375	-290.7536010742188	529.3129272460939	-956.829284667969	-279.2808837890626	373.1780090332032	-1047.537719726563	-327.5704956054688	329.9822998046876	-1108.202758789063	-290.6589355468751	326.1722412109376	-1081.899780273438	-298.0399780273438	247.5198059082032	-1051.7109375	-358.9173889160157	112.2861251831055	-1097.711303710938	-328.8713684082032	130.1438903808594	-1005.45166015625	-428.5175781250001	101.5096817016602	-1041.732055664063	-216.1222839355469	56.08949279785158	-1019.626159667969	-208.4883270263672	55.418758392334	-1068.817626953125	-260.7681884765626	39.6699562072754	-1120.872924804688	-323.5197448730469	766.7406616210939	-701.8778686523439	-289.5486145019532	710.3556518554689	-699.5458374023439	-256.2935180664063	709.4604492187501	-702.0094604492189	-320.3196411132813	634.2950439453126	-716.5368041992189	-333.8785095214844	543.4607543945314	-715.4107055664064	-274.8211364746094	538.1859741210939	-842.6999511718752	-281.2946777343751	432.877899169922	-714.0220947265626	-356.2098388671876	364.3367004394532	-680.5795288085939	-310.8030395507813	355.1179809570313	-687.4257202148439	-296.3731689453126	303.0740051269532	-708.0966796875001	-360.7254943847657	127.2031631469727	-680.6290893554689	-318.1632385253907	138.6672515869141	-766.1020507812501	-422.0654907226564	102.7758483886719	-740.4209594726564	-203.3918457031251	53.27099990844728	-746.1015014648439	-203.0929107666016	52.61196899414064	-698.3476562500001	-254.834213256836	38.8984603881836	-651.7654418945314	
